<svg width="128" height="128" viewBox="0 0 128 128" xmlns="http://www.w3.org/2000/svg">
  <!-- Background -->
  <rect width="128" height="128" fill="#1A0B3A"/>
  
  <!-- Moon body (crescent shape) - simplified -->
  <path d="M30 20 A30 30 0 0 1 70 60 A25 25 0 0 0 30 20" fill="#4A1B8A" stroke="#7C3AED" stroke-width="2"/>
  
  <!-- Moon inner glow - simplified -->
  <path d="M30 20 A30 30 0 0 1 70 60 A25 25 0 0 0 30 20" fill="#8B5CF6" opacity="0.6"/>
  
  <!-- Moon face features - made more visible -->
  <!-- Eyes -->
  <circle cx="40" cy="35" r="3" fill="#E0E7FF"/>
  <circle cx="55" cy="33" r="3" fill="#E0E7FF"/>
  
  <!-- Nose -->
  <circle cx="47" cy="40" r="2" fill="#A5B4FC"/>
  
  <!-- Mouth (smirk) -->
  <path d="M42 45 Q47 48 52 45" stroke="#E0E7FF" stroke-width="2" fill="none"/>
  
  <!-- Gaming Headset - simplified -->
  <!-- Headband -->
  <path d="M20 25 Q45 15 70 25 Q95 35 110 25" stroke="#3B1F6B" stroke-width="10" fill="none" stroke-linecap="round"/>
  <path d="M20 25 Q45 15 70 25 Q95 35 110 25" stroke="#E0E7FF" stroke-width="3" fill="none" stroke-linecap="round" opacity="0.8"/>
  
  <!-- Left earcup -->
  <circle cx="30" cy="30" r="15" fill="#3B1F6B" stroke="#7C3AED" stroke-width="2"/>
  <circle cx="30" cy="30" r="10" fill="#E0E7FF" opacity="0.7"/>
  
  <!-- Right earcup -->
  <circle cx="100" cy="30" r="15" fill="#3B1F6B" stroke="#7C3AED" stroke-width="2"/>
  <circle cx="100" cy="30" r="10" fill="#E0E7FF" opacity="0.7"/>
  
  <!-- Microphone boom -->
  <rect x="95" y="35" width="20" height="4" rx="2" fill="#3B1F6B" stroke="#7C3AED" stroke-width="1"/>
  <rect x="95" y="35" width="20" height="4" rx="2" fill="#E0E7FF" opacity="0.6"/>
  
  <!-- Microphone tip -->
  <circle cx="115" cy="37" r="3" fill="#E0E7FF"/>
</svg> 